<?xml version="1.0" standalone="no"?><svg xmlns="http://www.w3.org/2000/svg" viewBox="0 0 1440 320"><path fill="#FFFFFF" fill-opacity="1" d="M0,288L30,245.3C60,203,120,117,180,101.3C240,85,300,139,360,138.7C420,139,480,85,540,96C600,107,660,181,720,176C780,171,840,85,900,80C960,75,1020,149,1080,154.7C1140,160,1200,96,1260,106.7C1320,117,1380,203,1410,245.3L1440,288L1440,320L1410,320C1380,320,1320,320,1260,320C1200,320,1140,320,1080,320C1020,320,960,320,900,320C840,320,780,320,720,320C660,320,600,320,540,320C480,320,420,320,360,320C300,320,240,320,180,320C120,320,60,320,30,320L0,320Z"></path></svg>